<?xml version="1.0" encoding="utf-8"?>
<!-- Generator: Adobe Illustrator 17.0.0, SVG Export Plug-In . SVG Version: 6.00 Build 0)  -->
<!DOCTYPE svg PUBLIC "-//W3C//DTD SVG 1.1//EN" "http://www.w3.org/Graphics/SVG/1.1/DTD/svg11.dtd">
<svg version="1.1" id="Capa_1" xmlns="http://www.w3.org/2000/svg" xmlns:xlink="http://www.w3.org/1999/xlink" x="0px" y="0px"
	 width="202.333px" height="246.093px" viewBox="0 0 202.333 246.093" enable-background="new 0 0 202.333 246.093"
	 xml:space="preserve">
<g>
	<path fill="none" stroke="#000000" stroke-width="6" stroke-linejoin="round" stroke-miterlimit="10" d="M81.294,67.411
		L46.194,12.444L11.095,67.411v131.788h0.021c-0.006,0.247-0.021,0.493-0.021,0.742c0,17.6,15.715,31.868,35.099,31.868
		s35.099-14.268,35.099-31.868c0-0.249-0.014-0.494-0.021-0.742h0.021V67.411z"/>
	<path fill="none" stroke="#000000" stroke-width="6" stroke-miterlimit="10" d="M11.095,67.411c15.894,19.868,35.099,0,35.099,0
		c15.232,17.219,35.099,0,35.099,0"/>
	<line fill="none" stroke="#000000" stroke-width="6" stroke-miterlimit="10" x1="33.646" y1="32.094" x2="58.359" y2="32.094"/>
	<line fill="none" stroke="#000000" stroke-width="6" stroke-miterlimit="10" x1="11.095" y1="203.834" x2="81.107" y2="203.834"/>
	<line fill="none" stroke="#000000" stroke-width="6" stroke-miterlimit="10" x1="11.095" y1="190.589" x2="81.294" y2="190.589"/>
	<line fill="none" stroke="#000000" stroke-width="6" stroke-miterlimit="10" x1="29.678" y1="190.589" x2="29.678" y2="75.874"/>
	<line fill="none" stroke="#000000" stroke-width="6" stroke-miterlimit="10" x1="62.035" y1="190.589" x2="62.035" y2="75.061"/>
</g>
<g>
	
		<rect x="108.547" y="8.667" fill="none" stroke="#000000" stroke-width="6" stroke-linecap="round" stroke-linejoin="round" stroke-miterlimit="10" width="83.333" height="226"/>
	
		<line fill="none" stroke="#000000" stroke-width="6" stroke-linecap="round" stroke-linejoin="round" stroke-miterlimit="10" x1="108.547" y1="37.333" x2="134.881" y2="37.333"/>
	
		<line fill="none" stroke="#000000" stroke-width="6" stroke-linecap="round" stroke-linejoin="round" stroke-miterlimit="10" x1="110.214" y1="23" x2="118.881" y2="23"/>
	
		<line fill="none" stroke="#000000" stroke-width="6" stroke-linecap="round" stroke-linejoin="round" stroke-miterlimit="10" x1="108.547" y1="51.333" x2="118.881" y2="51.333"/>
	
		<line fill="none" stroke="#000000" stroke-width="6" stroke-linecap="round" stroke-linejoin="round" stroke-miterlimit="10" x1="110.214" y1="65.667" x2="134.881" y2="65.667"/>
	
		<line fill="none" stroke="#000000" stroke-width="6" stroke-linecap="round" stroke-linejoin="round" stroke-miterlimit="10" x1="108.547" y1="79.667" x2="118.881" y2="79.667"/>
	
		<line fill="none" stroke="#000000" stroke-width="6" stroke-linecap="round" stroke-linejoin="round" stroke-miterlimit="10" x1="108.547" y1="94.333" x2="134.881" y2="94.333"/>
	
		<line fill="none" stroke="#000000" stroke-width="6" stroke-linecap="round" stroke-linejoin="round" stroke-miterlimit="10" x1="108.547" y1="108" x2="118.881" y2="108"/>
	
		<line fill="none" stroke="#000000" stroke-width="6" stroke-linecap="round" stroke-linejoin="round" stroke-miterlimit="10" x1="110.214" y1="121.667" x2="134.881" y2="121.667"/>
	
		<line fill="none" stroke="#000000" stroke-width="6" stroke-linecap="round" stroke-linejoin="round" stroke-miterlimit="10" x1="110.214" y1="136.333" x2="118.881" y2="136.333"/>
	
		<line fill="none" stroke="#000000" stroke-width="6" stroke-linecap="round" stroke-linejoin="round" stroke-miterlimit="10" x1="108.547" y1="150.333" x2="134.881" y2="150.333"/>
	
		<line fill="none" stroke="#000000" stroke-width="6" stroke-linecap="round" stroke-linejoin="round" stroke-miterlimit="10" x1="108.547" y1="164.667" x2="118.881" y2="164.667"/>
	
		<line fill="none" stroke="#000000" stroke-width="6" stroke-linecap="round" stroke-linejoin="round" stroke-miterlimit="10" x1="110.214" y1="179" x2="134.881" y2="179"/>
	
		<line fill="none" stroke="#000000" stroke-width="6" stroke-linecap="round" stroke-linejoin="round" stroke-miterlimit="10" x1="110.214" y1="193" x2="118.881" y2="193"/>
	
		<line fill="none" stroke="#000000" stroke-width="6" stroke-linecap="round" stroke-linejoin="round" stroke-miterlimit="10" x1="110.214" y1="207.333" x2="134.881" y2="207.333"/>
	
		<line fill="none" stroke="#000000" stroke-width="6" stroke-linecap="round" stroke-linejoin="round" stroke-miterlimit="10" x1="110.214" y1="221.333" x2="118.881" y2="221.333"/>
</g>
</svg>
