<?xml version="1.0" encoding="utf-8"?>
<!-- Generator: Adobe Illustrator 17.0.0, SVG Export Plug-In . SVG Version: 6.00 Build 0)  -->
<!DOCTYPE svg PUBLIC "-//W3C//DTD SVG 1.1//EN" "http://www.w3.org/Graphics/SVG/1.1/DTD/svg11.dtd">
<svg version="1.1" id="Capa_1" xmlns="http://www.w3.org/2000/svg" xmlns:xlink="http://www.w3.org/1999/xlink" x="0px" y="0px"
	 width="256px" height="246.093px" viewBox="0 0 256 246.093" enable-background="new 0 0 256 246.093" xml:space="preserve">
<circle fill="none" stroke="#FFFFFF" stroke-width="6" stroke-miterlimit="10" cx="127.5" cy="123.047" r="116.5"/>
<g>
	<g>
		<path fill="none" stroke="#FFFFFF" stroke-width="4.4725" stroke-linejoin="round" stroke-miterlimit="10" d="M110.447,83.89
			L84.283,42.916L58.12,83.89v98.237h0.016c-0.004,0.184-0.016,0.367-0.016,0.553c0,13.119,11.714,23.755,26.163,23.755
			c14.449,0,26.163-10.636,26.163-23.755c0-0.186-0.01-0.368-0.016-0.553h0.016L110.447,83.89L110.447,83.89z"/>
		<path fill="none" stroke="#FFFFFF" stroke-width="4.4725" stroke-miterlimit="10" d="M58.12,83.89c11.848,14.81,26.163,0,26.163,0
			c11.354,12.835,26.163,0,26.163,0"/>
		
			<line fill="none" stroke="#FFFFFF" stroke-width="4.4725" stroke-miterlimit="10" x1="74.93" y1="57.564" x2="93.351" y2="57.564"/>
		
			<line fill="none" stroke="#FFFFFF" stroke-width="4.4725" stroke-miterlimit="10" x1="58.12" y1="185.582" x2="110.308" y2="185.582"/>
		
			<line fill="none" stroke="#FFFFFF" stroke-width="4.4725" stroke-miterlimit="10" x1="58.12" y1="175.709" x2="110.447" y2="175.709"/>
		
			<line fill="none" stroke="#FFFFFF" stroke-width="4.4725" stroke-miterlimit="10" x1="71.972" y1="175.709" x2="71.972" y2="90.198"/>
		
			<line fill="none" stroke="#FFFFFF" stroke-width="4.4725" stroke-miterlimit="10" x1="96.091" y1="175.709" x2="96.091" y2="89.592"/>
	</g>
	<g>
		
			<rect x="130.762" y="40.101" fill="none" stroke="#FFFFFF" stroke-width="4.4725" stroke-linecap="round" stroke-linejoin="round" stroke-miterlimit="10" width="62.118" height="168.465"/>
		
			<line fill="none" stroke="#FFFFFF" stroke-width="4.4725" stroke-linecap="round" stroke-linejoin="round" stroke-miterlimit="10" x1="130.762" y1="61.469" x2="150.392" y2="61.469"/>
		
			<line fill="none" stroke="#FFFFFF" stroke-width="4.4725" stroke-linecap="round" stroke-linejoin="round" stroke-miterlimit="10" x1="132.005" y1="50.785" x2="138.465" y2="50.785"/>
		
			<line fill="none" stroke="#FFFFFF" stroke-width="4.4725" stroke-linecap="round" stroke-linejoin="round" stroke-miterlimit="10" x1="130.762" y1="71.905" x2="138.465" y2="71.905"/>
		
			<line fill="none" stroke="#FFFFFF" stroke-width="4.4725" stroke-linecap="round" stroke-linejoin="round" stroke-miterlimit="10" x1="132.005" y1="82.59" x2="150.392" y2="82.59"/>
		
			<line fill="none" stroke="#FFFFFF" stroke-width="4.4725" stroke-linecap="round" stroke-linejoin="round" stroke-miterlimit="10" x1="130.762" y1="93.025" x2="138.465" y2="93.025"/>
		
			<line fill="none" stroke="#FFFFFF" stroke-width="4.4725" stroke-linecap="round" stroke-linejoin="round" stroke-miterlimit="10" x1="130.762" y1="103.958" x2="150.392" y2="103.958"/>
		
			<line fill="none" stroke="#FFFFFF" stroke-width="4.4725" stroke-linecap="round" stroke-linejoin="round" stroke-miterlimit="10" x1="130.762" y1="114.145" x2="138.465" y2="114.145"/>
		
			<line fill="none" stroke="#FFFFFF" stroke-width="4.4725" stroke-linecap="round" stroke-linejoin="round" stroke-miterlimit="10" x1="132.005" y1="124.333" x2="150.392" y2="124.333"/>
		
			<line fill="none" stroke="#FFFFFF" stroke-width="4.4725" stroke-linecap="round" stroke-linejoin="round" stroke-miterlimit="10" x1="132.005" y1="135.265" x2="138.465" y2="135.265"/>
		
			<line fill="none" stroke="#FFFFFF" stroke-width="4.4725" stroke-linecap="round" stroke-linejoin="round" stroke-miterlimit="10" x1="130.762" y1="145.701" x2="150.392" y2="145.701"/>
		
			<line fill="none" stroke="#FFFFFF" stroke-width="4.4725" stroke-linecap="round" stroke-linejoin="round" stroke-miterlimit="10" x1="130.762" y1="156.386" x2="138.465" y2="156.386"/>
		
			<line fill="none" stroke="#FFFFFF" stroke-width="4.4725" stroke-linecap="round" stroke-linejoin="round" stroke-miterlimit="10" x1="132.005" y1="167.07" x2="150.392" y2="167.07"/>
		
			<line fill="none" stroke="#FFFFFF" stroke-width="4.4725" stroke-linecap="round" stroke-linejoin="round" stroke-miterlimit="10" x1="132.005" y1="177.506" x2="138.465" y2="177.506"/>
		
			<line fill="none" stroke="#FFFFFF" stroke-width="4.4725" stroke-linecap="round" stroke-linejoin="round" stroke-miterlimit="10" x1="132.005" y1="188.19" x2="150.392" y2="188.19"/>
		
			<line fill="none" stroke="#FFFFFF" stroke-width="4.4725" stroke-linecap="round" stroke-linejoin="round" stroke-miterlimit="10" x1="132.005" y1="198.626" x2="138.465" y2="198.626"/>
	</g>
</g>
</svg>
