<?xml version="1.0" encoding="utf-8"?>
<!-- Generator: Adobe Illustrator 17.0.0, SVG Export Plug-In . SVG Version: 6.00 Build 0)  -->
<!DOCTYPE svg PUBLIC "-//W3C//DTD SVG 1.1//EN" "http://www.w3.org/Graphics/SVG/1.1/DTD/svg11.dtd">
<svg version="1.1" id="Capa_1" xmlns="http://www.w3.org/2000/svg" xmlns:xlink="http://www.w3.org/1999/xlink" x="0px" y="0px"
	 width="256px" height="246.093px" viewBox="25.809 0 256 246.093" enable-background="new 25.809 0 256 246.093"
	 xml:space="preserve">
<circle fill="none" stroke="#FFFFFF" stroke-width="6" stroke-miterlimit="10" cx="151.797" cy="123.047" r="116.5"/>
<g>
	<g>
		
			<line fill="none" stroke="#FFFFFF" stroke-width="6" stroke-miterlimit="10" x1="152.456" y1="181.076" x2="152.456" y2="190.253"/>
		<line fill="none" stroke="#FFFFFF" stroke-width="6" stroke-miterlimit="10" x1="95.962" y1="190.857" x2="208.95" y2="190.857"/>
		
			<line fill="none" stroke="#FFFFFF" stroke-width="6" stroke-miterlimit="10" x1="66.453" y1="155.747" x2="237.141" y2="155.747"/>
		<circle fill="none" stroke="#FFFFFF" stroke-width="6" stroke-miterlimit="10" cx="152.401" cy="168.675" r="5.125"/>
		<path fill="none" stroke="#FFFFFF" stroke-width="6" stroke-miterlimit="10" d="M237.141,172.89c0,4.369-3.542,7.911-7.911,7.911
			H74.364c-4.369,0-7.911-3.542-7.911-7.911V64.221c0-4.369,3.542-7.911,7.911-7.911H229.23c4.369,0,7.911,3.542,7.911,7.911V172.89
			z"/>
	</g>
	<polyline fill="none" stroke="#FFFFFF" stroke-width="6" stroke-miterlimit="10" points="141.956,85.119 91.9,109.402 
		141.956,134.631 	"/>
	<polyline fill="none" stroke="#FFFFFF" stroke-width="6" stroke-miterlimit="10" points="159.956,134.631 210.012,110.348 
		159.956,85.119 	"/>
</g>
</svg>
