<?xml version="1.0" encoding="utf-8"?>
<!-- Generator: Adobe Illustrator 17.0.0, SVG Export Plug-In . SVG Version: 6.00 Build 0)  -->
<!DOCTYPE svg PUBLIC "-//W3C//DTD SVG 1.1//EN" "http://www.w3.org/Graphics/SVG/1.1/DTD/svg11.dtd">
<svg version="1.1" id="Capa_1" xmlns="http://www.w3.org/2000/svg" xmlns:xlink="http://www.w3.org/1999/xlink" x="0px" y="0px"
	 width="302.619px" height="246.093px" viewBox="0 0 302.619 246.093" enable-background="new 0 0 302.619 246.093"
	 xml:space="preserve">
<g>
	<g>
		
			<line fill="none" stroke="#000000" stroke-width="5.6828" stroke-linecap="round" stroke-miterlimit="10" x1="152.889" y1="217.801" x2="152.889" y2="233"/>
		
			<line fill="none" stroke="#000000" stroke-width="5.1168" stroke-linecap="round" stroke-miterlimit="10" x1="59.325" y1="234" x2="246.452" y2="234"/>
		
			<line fill="none" stroke="#000000" stroke-width="6.5512" stroke-linecap="round" stroke-miterlimit="10" x1="10.453" y1="175.851" x2="293.141" y2="175.851"/>
		<circle cx="152.797" cy="197.263" r="8.488"/>
		
			<path fill="none" stroke="#000000" stroke-width="6.5512" stroke-linecap="round" stroke-linejoin="round" stroke-miterlimit="32" d="
			M293.141,204.244c0,7.236-5.866,13.102-13.102,13.102H23.555c-7.236,0-13.102-5.866-13.102-13.102V24.269
			c0-7.236,5.866-13.102,13.102-13.102h256.484c7.236,0,13.102,5.866,13.102,13.102V204.244z"/>
	</g>
	
		<polyline fill="none" stroke="#000000" stroke-width="6" stroke-linecap="round" stroke-linejoin="round" stroke-miterlimit="10" points="
		135.498,58.88 52.598,99.096 135.498,140.88 	"/>
	
		<polyline fill="none" stroke="#000000" stroke-width="6" stroke-linecap="round" stroke-linejoin="round" stroke-miterlimit="10" points="
		165.309,140.88 248.21,100.664 165.309,58.88 	"/>
</g>
</svg>
